<?xml version="1.0" encoding="utf-8"?>
<!-- Generator: Adobe Illustrator 15.0.0, SVG Export Plug-In . SVG Version: 6.00 Build 0)  -->
<!DOCTYPE svg PUBLIC "-//W3C//DTD SVG 1.1//EN" "http://www.w3.org/Graphics/SVG/1.1/DTD/svg11.dtd">
<svg version="1.1" id="Ebene_2" xmlns="http://www.w3.org/2000/svg" xmlns:xlink="http://www.w3.org/1999/xlink" x="0px" y="0px"
	 width="161px" height="156px" viewBox="0 0 161 156" enable-background="new 0 0 161 156" xml:space="preserve">
<g>
	<path fill="#E31513" d="M81.203,14.111c-0.761,0.158-0.706,2.331-1.745,5.14c-1.474,1.624-3.88,4.402-5.236,6.222
		c-1.353,1.819-7.348,9.383-6.399,9.383c1.67,0,9.249,0.53,12.766,3.169c2.035,1.525,1.7,4.873,1.337,6.304
		c-0.763,2.973-14.317,7.245-15.478,7.571c-1.161,0.327-4.795,1.713-4.747,2.349c0.024,0.34,5.356,1.184,9.833,3.054
		c3.854,1.608,7.053,4.088,7.52,4.457c1.016,0.799,14.771-4.183,21.161-6.201c9.455-2.991,19.6-5.138,27.546-9.743
		c3.313-1.921,11.901-4.221,11.807-4.792c-0.095-0.572-10.864-7.774-16.016-10.738c-5.465-3.142-16.236-5.688-18.667-6.848
		C102.454,22.275,81.966,13.951,81.203,14.111"/>
	<path fill="#ED7103" d="M52.293,21.61c-1.818,0.212-15.91,5.374-17.602,6.517c-1.692,1.142-4.729,5.341-7.236,7.193
		c-4.373,3.23-18.671,4.517-18.973,5.167c-0.3,0.65,3.222,22.177,4.617,22.687c0.574,0.207,3.619,1.292,7.056,5.456
		c4.933,5.977,10.212,16.078,13.161,20.25c2.692,3.808,7.331,9.396,11.933,6.634c4.602-2.763-3.618-12.346-2.888-15.964
		c1.238-3.301,2.983-2.318,4.411-0.952c1.429,1.365,13.901,9.489,18.09,7.553c4.188-1.937,2.633-4.792,1.11-6.506
		s-8.278-6.005-9.707-7.213c-1.428-1.205-1.806-2.379-1.013-3.305c0.844-0.984,7.229,1.19,6.276,1.092
		c-0.264-0.027,10.741,2.935,14.853,0.253c3.554-2.315,1.239-5.965-1.015-7.141c-1.041-0.542-4.518-2.977-8.463-4.939
		c-4.299-2.139-8.559-3.143-7.839-6.359c0.299-1.333,2.934-2.281,5.927-3.336c4.225-1.491,9.416-2.981,11.931-4.237
		c4.229-2.116,2.369-5.459,0.464-6.222c-1.904-0.761-9.815-2.665-10.749-2.199c-0.93,0.465-1.161,1.589-2.707,1.311
		c-1.213-0.217-0.974-1.227-2.158-1.227c-4.349,0-9.405,0.127-13.625-2.242c-2.412-1.354-1.565-2.454-0.169-4.57
		c0.809-1.225,3.321-3.383,6.537-4.729c1.92-0.802,2.786-2.204,2.644-2.506C56.822,21.356,54.113,21.399,52.293,21.61"/>
	<path fill="#FFFFFF" d="M80.982,63.637c3.199,16.91-18.868,8.824-19.296,9.851c-0.253,0.609,1.034,0.999,1.371,1.421
		c4.4,1.681,11.195,8.095,5.28,13.05c-5.206,4.361-14.997-1.173-15.537-0.761c-0.539,0.413,4.792,23.43,5.617,26.922
		c0.825,3.491,1.333,16.705,1.999,17.085c0.667,0.379,19.232-0.132,33.832-0.096c8.434,0.023,15.878,0.468,16.692,0.456
		c2.222-0.033,7.639,0.041,11.151,1.069c4.034,1.181,5.999,2.146,7.19,1.277c1.237-0.901-0.357-4.183-0.34-5.294
		c0.017-1.312,1.213-0.774,0.785-1.561c-0.767-1.406-8.162-5.339-13.544-6.226c-3.979-0.656-9.723-1.033-12.769-1.224
		c-3.048-0.189-7.016,0.531-13.07-0.484c-6.06-1.016-10.113-12.374-1.08-16.566c3.517-1.705,5.902-1.903,7.172-1.903
		c1.268,0,4.633,0.316,4.854-0.603c0.225-0.922-23.324-8.543-16.31-17.138c4.182-5.689,14.324,1.314,20.846,1.363
		c0-0.084,2.74,0.145,3.065-0.235c0.087-0.65-1.119,0.204-5.372-3.352c-4.252-3.555-5.782-16.28-0.958-17.675
		s11.843,3.967,14.699,6.094c6.729,5.013,3.681,8.703,6.931,8.796c2.684,0.077,2.819-2.806,2.972-3.466
		c0.153-0.66,0.025-9.837,3.937-10.802c2.783-0.688,4.163,0.406,4.569-0.051c0.404-0.457,0.389-4.358,0.304-6.296
		c-0.101-2.286,0.915-11.426,0.406-12.338c-1.169-0.052-15.213,6.939-23.008,9.633c-5.881,2.034-11.566,3.537-12.942,4.127
		C97.23,60.083,81.187,63.18,80.982,63.637"/>
	<path fill="#ED7103" d="M103.231,66.178c-1.788,1.909-1.662,3.452-1.418,4.755c0.24,1.303,2.204,5.133,3.959,7.501
		c2.191,2.95,6.306,6.328,5.638,8.145c-0.666,1.819-2.926,1.452-3.154,1.473c-5.177,0.502-16.291-6.718-18.937-4.856
		c-1.416,0.824-3.342,2.859-2.413,5.336c0.48,1.271,3.248,3.436,10.596,5.935c5.461,1.858,13.112,5.789,13.368,7.529
		c0.252,1.741-0.909,2.285-2.541,2.104c-1.633-0.181-2.431-1.195-5.73-1.123c-3.301,0.071-10.772,0.871-13.784,3.771
		c-0.753,0.726-2.713,4.608-0.158,6.673c1.248,1.008,2.252,1.68,4.375,1.875c5.139,0.476,12.329,0.633,18.164,1.811
		c9.85,1.988,24.772,10.742,28.838,12.543c4.181,1.849,12.132,2.988,14.611,3.285c1.524,0.181,1.306,3.99,1.995,3.88
		c0.69-0.107-2.263-18.029-3.363-25.813c-4.353-1.759-10.853-5.015-14.026-9.14c-3.176-4.125-1.893-7.96-1.699-10.308
		c0.189-2.347,0.491-5.307,0.556-9.242c0.063-3.936-0.767-14.389-2.354-15.086c-1.587-0.698-3.911-0.933-5.088,0
		c-3.831,2.707-1.24,12.995-5.181,13.995c-1.337,0.339-2.599,0.72-3.448-0.221c-0.848-0.939-1.492-2.9-3.224-5.225
		C114.925,70.554,105.021,64.27,103.231,66.178"/>
	<path fill="#00A5E6" d="M137.559,3.821c-0.542,0.071-0.802,0.868-1.484,1.371c-0.682,0.502-51.323-0.253-54.733-0.074
		c-3.41,0.179-14.704,2.17-26.375,5.471c-13.586,3.844-22.841,3.107-25.553,3.161c-2.886,0.056-3.223,1.46-4.841,1.36
		c-6.688-0.409-20.627,2.677-20.878,3.251c-0.176,0.399,0.939,5.598,1.158,7.122c0.216,1.523,1.996,9.812,2.685,10.211
		c0.534,0.308,1.522,0.036,9.395,0.036c11.788-0.144,10.2-4.599,16.72-8.667c11.224-7.109,21.615-6.709,24.118-6.601
		c1.434,0.062,0.508,1.958,0.182,4.062c-0.313,2.007-4.099,6.238-3.881,6.419c0.218,0.18,8.705,3.372,9.648,2.938
		c0.943-0.436,15.457-20.665,17.12-21.979c0.869-0.689,15.381,4.198,19.294,6.202c4.571,2.792,15.312,5.707,18.316,6.892
		c3.006,1.185,20.42,13.602,22.342,13.89c0.635,0.097,0.108,2.032,0.366,2.105c0.249,0.072,1.594-0.218,1.776-1.016
		c0.18-0.797-3.325-24.628-3.631-26.984C138.905,9.94,138.097,3.749,137.559,3.821"/>
	<path fill="#00A5E6" d="M142.756,42.831c-1.619,0.255-2.808,0.426-3.429,1c-1.045,0.968-1.014,14.646-0.937,16.899
		c0.039,1.036-0.488,3.254-0.108,6.2c0.186,1.458,1.045,2.815,1.413,4.367c0.501,2.125,0.525,4.392,0.694,5.745
		c0.24,1.868,0.617,4.834,0.54,9.141c-0.103,5.701-3.032,12.213,5.3,17.264c2.145,1.299,6.203,4.533,6.781,4.171
		c0.583-0.364-0.288-3.916-0.797-8.705c-0.507-4.786-1.521-11.316-2.139-16.212c-0.617-4.897-4.097-21.073-4.605-23.357
		C144.961,57.057,144.374,42.577,142.756,42.831"/>
	<path fill="#00A5E6" d="M14.258,67.932c-1.339,0.861,4.47,20.494,5.428,26.332c0.956,5.837,3.473,19.955,3.903,23.401
		c0.431,3.444,2.387,34.97,3.823,35.543c1.77-0.048,28.057-4.563,36.813-6.092c8.756-1.532,13.468-2.238,17.01-2.287
		c3.542-0.047,7.661,0.032,11.014-0.493c3.348-0.526,20.696-4.455,25.291-5.029c4.594-0.573,32.197-1.232,32.867-1.998
		c-3.639-0.431-18.487-9.905-18.967-9.475c-0.477,0.432,2.194,5.473,1.225,7.809c-0.625,1.425-1.641,2.413-3.7,2.078
		c-0.631-0.103-3.955-1.381-9.074-2.227c-2.928-0.482-6.546-0.585-10.32-0.851c-11.16-0.784-29.353-1.441-33.413-1.492
		c-4.063-0.051-17.637,0.646-19.719,0c-1.15-0.927-0.744-11.934-0.998-15.74c-0.254-3.811-2.843-16.098-3.402-20.819
		c-0.558-4.724-1.011-10.615-1.618-11.14c-1.748-1.508-3.095-2.349-3.396-2.016c-0.302,0.334-0.175,1.19-0.016,1.65
		c0.158,0.461,2.589,6.496,2.077,9.601c-0.914,5.568-7.679,5.776-12.534,2.921c-3.532-2.077-12.631-17.479-18.054-25.289
		C16.467,69.393,14.624,67.696,14.258,67.932"/>
	<g>
		<path fill="#010000" d="M137.597,0.115c0.453-0.338,1.038,0.042,1.243,1.494c0.141,0.995,4.937,29.543,5.611,34.559
			c0.68,5.015,8.043,44.208,8.55,47.534c0.507,3.323,2.162,16.739,3.329,24.481c0.929,6.176,5.575,30.318,4.513,30.667
			c-0.71,0.233-15.158,2.228-17.941,2.426c-3.156,0.226-19.809,0.847-24.258,1.242c-4.454,0.395-23.729,4.793-26.827,5.077
			c-3.101,0.282-12.78,0.704-15.482,0.874c-2.706,0.17-16.429,2.399-20.148,3.02c-3.72,0.619-13.654,2.595-20.933,3.779
			c-3.301,0.186-8.918,0.51-9.759,0.337c-0.905-0.187-2.223-18.98-2.392-22.702c-0.195-4.277-1.277-13.861-1.783-18.03
			c-0.507-4.169-6.098-30.064-7.589-36.306c-1.521-6.369-2.708-12.104-3.327-13.457c-0.622-1.352-3.969-2.51-3.841-3.237
			c0.129-0.726,2.112,0.153,2.808-0.175c0.27-0.126-3.823-20.513-4.031-20.78c-0.208-0.268-3.167-0.245-3.66-1.092
			c-0.536-0.921-0.178-1.583-0.178-2.088c0.773-1.673,2.384-1.464,2.868-2.02c0.388-0.448-2.292-16.726-2.85-16.854
			c-2.083-0.477-1.793-3.17-0.511-3.543c1.011-0.292,8.612-2.427,16.503-3.273c7.89-0.845,20.25,0.381,29.704-1.606
			c10.97-2.307,23.227-6.095,33.261-7.109c10.03-1.014,20.318-0.649,26.402-0.93c6.086-0.282,29.023-1.821,29.508-1.298
			C137.795,2.625,137.148,0.452,137.597,0.115 M137.559,3.821c-0.542,0.071-0.802,0.868-1.484,1.372
			c-0.682,0.501-51.323-0.254-54.733-0.075c-3.41,0.179-14.704,2.17-26.375,5.471c-13.586,3.844-22.841,3.107-25.553,3.161
			c-2.886,0.056-3.223,1.46-4.841,1.36c-6.688-0.409-20.627,2.677-20.878,3.251c-0.176,0.4,0.939,5.598,1.158,7.122
			c0.216,1.524,1.996,9.812,2.685,10.211c0.534,0.309,1.522,0.036,9.395,0.036c11.788-0.144,10.2-4.599,16.72-8.667
			c11.224-7.109,21.615-6.709,24.118-6.601c1.434,0.062,0.508,1.958,0.182,4.062c-0.313,2.007-4.099,6.238-3.881,6.419
			c0.218,0.18,8.705,3.373,9.648,2.938c0.943-0.436,15.457-20.665,17.12-21.979c0.869-0.689,15.381,4.198,19.294,6.202
			c4.571,2.792,15.312,5.707,18.316,6.892c3.006,1.184,20.42,13.602,22.342,13.89c0.635,0.097,0.108,2.032,0.366,2.105
			c0.249,0.072,1.594-0.218,1.776-1.016c0.18-0.797-3.325-24.627-3.631-26.984C138.905,9.94,138.097,3.749,137.559,3.821z
			 M81.203,14.111c-0.761,0.158-0.706,2.331-1.745,5.14c-1.474,1.623-3.88,4.402-5.236,6.222c-1.353,1.819-7.348,9.383-6.399,9.383
			c1.67,0,9.249,0.53,12.766,3.168c2.035,1.526,1.7,4.874,1.337,6.304c-0.763,2.973-14.317,7.245-15.478,7.571
			c-1.161,0.327-4.795,1.713-4.747,2.349c0.024,0.34,5.356,1.184,9.833,3.054c3.854,1.609,7.053,4.089,7.52,4.458
			c1.016,0.799,14.771-4.183,21.161-6.202c9.455-2.991,19.6-5.137,27.546-9.743c3.313-1.921,11.901-4.221,11.807-4.792
			c-0.095-0.572-10.864-7.774-16.016-10.738c-5.465-3.142-16.236-5.688-18.667-6.848C102.454,22.275,81.966,13.951,81.203,14.111z
			 M52.293,21.61c-1.818,0.212-15.91,5.375-17.602,6.517c-1.692,1.143-4.729,5.341-7.236,7.193
			c-4.373,3.231-18.671,4.517-18.973,5.167c-0.3,0.65,3.222,22.177,4.617,22.687c0.574,0.207,3.619,1.292,7.056,5.456
			c4.933,5.977,10.212,16.078,13.161,20.25c2.692,3.808,7.331,9.396,11.933,6.634c4.602-2.763-3.618-12.346-2.888-15.964
			c1.238-3.301,2.983-2.319,4.411-0.952c1.429,1.365,13.901,9.489,18.09,7.553c4.188-1.937,2.633-4.792,1.11-6.506
			s-8.278-6.005-9.707-7.213c-1.428-1.205-1.806-2.379-1.013-3.305c0.844-0.984,7.229,1.19,6.276,1.092
			c-0.264-0.027,10.741,2.935,14.853,0.253c3.554-2.315,1.239-5.965-1.015-7.141c-1.041-0.542-4.518-2.977-8.463-4.939
			c-4.299-2.139-8.559-3.143-7.839-6.359c0.299-1.332,2.934-2.281,5.927-3.336c4.225-1.491,9.416-2.981,11.931-4.237
			c4.229-2.117,2.369-5.458,0.464-6.222c-1.904-0.761-9.815-2.665-10.749-2.199c-0.93,0.465-1.161,1.589-2.707,1.311
			c-1.213-0.216-0.974-1.227-2.158-1.227c-4.349,0-9.405,0.128-13.625-2.242c-2.412-1.354-1.565-2.454-0.169-4.57
			c0.809-1.224,3.321-3.383,6.537-4.729c1.92-0.801,2.786-2.203,2.644-2.506C56.822,21.356,54.113,21.399,52.293,21.61z
			 M142.756,42.831c-1.619,0.255-2.808,0.426-3.429,1c-1.045,0.968-1.014,14.646-0.937,16.899c0.039,1.036-0.488,3.254-0.108,6.2
			c0.186,1.458,1.045,2.815,1.413,4.367c0.501,2.125,0.525,4.392,0.694,5.745c0.24,1.868,0.617,4.834,0.54,9.141
			c-0.103,5.701-3.032,12.213,5.3,17.264c2.145,1.299,6.203,4.533,6.781,4.171c0.583-0.364-0.288-3.916-0.797-8.705
			c-0.507-4.786-1.521-11.316-2.139-16.212c-0.617-4.897-4.097-21.073-4.605-23.357C144.961,57.057,144.374,42.577,142.756,42.831z
			 M80.982,63.637c3.199,16.909-18.868,8.824-19.296,9.851c-0.253,0.609,1.034,0.999,1.371,1.421c4.4,1.681,11.195,8.095,5.28,13.05
			c-5.206,4.361-14.997-1.173-15.537-0.761c-0.539,0.413,4.792,23.43,5.617,26.922c0.825,3.491,1.333,16.705,1.999,17.085
			c0.667,0.379,19.232-0.132,33.832-0.096c8.434,0.023,15.878,0.468,16.692,0.456c2.222-0.033,7.639,0.041,11.151,1.069
			c4.034,1.181,5.999,2.146,7.19,1.277c1.237-0.901-0.357-4.183-0.34-5.294c0.017-1.312,1.213-0.774,0.785-1.561
			c-0.767-1.406-8.162-5.339-13.544-6.226c-3.979-0.656-9.723-1.033-12.769-1.224c-3.048-0.189-7.016,0.531-13.07-0.484
			c-6.06-1.016-10.113-12.374-1.08-16.566c3.517-1.705,5.902-1.903,7.172-1.903c1.268,0,4.633,0.316,4.854-0.603
			c0.225-0.922-23.324-8.543-16.31-17.138c4.182-5.689,14.324,1.314,20.846,1.363c0-0.084,2.74,0.145,3.065-0.235
			c0.087-0.65-1.119,0.204-5.372-3.352c-4.252-3.555-5.782-16.28-0.958-17.675s11.843,3.967,14.699,6.094
			c6.729,5.013,3.681,8.703,6.931,8.796c2.684,0.077,2.819-2.806,2.972-3.466c0.153-0.66,0.025-9.837,3.937-10.802
			c2.783-0.688,4.163,0.406,4.569-0.051c0.404-0.457,0.389-4.358,0.304-6.296c-0.101-2.286,0.915-11.426,0.406-12.338
			c-1.169-0.052-15.213,6.939-23.008,9.633c-5.881,2.034-11.566,3.537-12.942,4.127C97.23,60.083,81.187,63.18,80.982,63.637z
			 M103.231,66.178c-1.788,1.909-1.662,3.452-1.418,4.755c0.24,1.303,2.204,5.133,3.959,7.501c2.191,2.95,6.306,6.328,5.638,8.145
			c-0.666,1.819-2.926,1.452-3.154,1.473c-5.177,0.502-16.291-6.718-18.937-4.856c-1.416,0.824-3.342,2.859-2.413,5.336
			c0.48,1.271,3.248,3.436,10.596,5.935c5.461,1.858,13.112,5.789,13.368,7.529c0.252,1.741-0.909,2.285-2.541,2.104
			c-1.633-0.181-2.431-1.195-5.73-1.123c-3.301,0.071-10.772,0.871-13.784,3.771c-0.753,0.726-2.713,4.608-0.158,6.673
			c1.248,1.008,2.252,1.68,4.375,1.875c5.139,0.476,12.329,0.633,18.164,1.811c9.85,1.988,24.772,10.742,28.838,12.543
			c4.181,1.849,12.132,2.988,14.611,3.285c1.524,0.181,1.306,3.99,1.995,3.88c0.69-0.107-2.263-18.029-3.363-25.813
			c-4.353-1.759-10.853-5.015-14.026-9.14c-3.176-4.125-1.893-7.96-1.699-10.308c0.189-2.347,0.491-5.307,0.556-9.242
			c0.063-3.936-0.767-14.389-2.354-15.086c-1.587-0.698-3.911-0.933-5.088,0c-3.831,2.707-1.24,12.995-5.181,13.995
			c-1.337,0.339-2.599,0.72-3.448-0.221c-0.848-0.939-1.492-2.9-3.224-5.225C114.925,70.554,105.021,64.27,103.231,66.178z
			 M14.258,67.932c-1.339,0.861,4.47,20.494,5.428,26.332c0.956,5.837,3.473,19.955,3.903,23.401
			c0.431,3.444,2.387,34.97,3.823,35.543c1.77-0.048,28.057-4.563,36.813-6.092c8.756-1.532,13.468-2.238,17.01-2.287
			c3.542-0.047,7.661,0.032,11.014-0.493c3.348-0.526,20.696-4.455,25.291-5.029c4.594-0.573,32.197-1.232,32.867-1.998
			c-3.639-0.431-18.487-9.905-18.967-9.475c-0.477,0.432,2.194,5.473,1.225,7.809c-0.625,1.425-1.641,2.413-3.7,2.078
			c-0.631-0.103-3.955-1.381-9.074-2.227c-2.928-0.482-6.546-0.585-10.32-0.851c-11.16-0.784-29.353-1.441-33.413-1.492
			c-4.063-0.051-17.637,0.646-19.719,0c-1.15-0.927-0.744-11.934-0.998-15.74c-0.254-3.811-2.843-16.098-3.402-20.819
			c-0.558-4.724-1.011-10.615-1.618-11.14c-1.748-1.508-3.095-2.349-3.396-2.016c-0.302,0.334-0.175,1.19-0.016,1.65
			c0.158,0.461,2.589,6.496,2.077,9.601c-0.914,5.568-7.679,5.776-12.534,2.921c-3.532-2.077-12.631-17.479-18.054-25.289
			C16.467,69.393,14.624,67.696,14.258,67.932z"/>
	</g>
	<path fill="#1E171A" d="M72.605,7.731c0.978,0.037,1.486,1.088,1.522,1.522c0.036,0.436-0.108,8.379-0.144,9.032
		c-0.038,0.653-0.11,1.559-0.871,1.632c-0.762,0.074-0.798,0.218-1.56-0.109c-0.762-0.326-0.58-2.189-0.835-2.358
		c-0.276-4.17,0.508-7.688,0.762-8.377C71.734,8.385,71.625,7.695,72.605,7.731"/>
	<path fill="#1E171A" d="M108.076,9.943c1.197-0.581,3.407-0.725,3.226,2.647c-0.18,3.374,3.011,5.296,3.085,5.803
		c0.073,0.508-0.093,1.085-1.088,1.197c-1.463,0.164-6.421-5.73-6.529-6.927C106.661,11.467,106.905,10.511,108.076,9.943"/>
	<path fill="#1E171A" d="M122.402,12.592c0.071-1.234,1.85-1.088,1.993-0.29c0.145,0.796-1.159,6.383-1.776,7.507
		c-0.616,1.125-1.779,1.293-2.286,1.379c-0.337-0.254-1.597-1.343-0.542-2.684C120.84,17.163,122.328,13.825,122.402,12.592"/>
	<path fill="#1E171A" d="M29.226,18.25c1.088-0.109,4.751,2.394,5.041,2.684c0.291,0.289,0.182,1.777-0.507,1.777
		c-0.69,0-5.295-1.016-5.913-1.668c-0.617-0.653-0.726-1.27-0.145-2.176C28.283,17.959,28.137,18.359,29.226,18.25"/>
	<path fill="#1E171A" d="M15.226,21.042c0.545-0.835,1.052-0.254,1.271,0.145c0.217,0.399,0,2.37,0,3.554
		c-0.171,1.002,0.053,2.92-0.389,3.643c-0.54,0.881-1.461,1.038-2.222,0.565C13.398,28.648,14.793,21.706,15.226,21.042"/>
	<path fill="#1E171A" d="M148.516,85.674c0.652-0.289,0.871-0.217,1.304,0.219c0.438,0.436-3.659,4.859-4.35,5.622
		c-0.691,0.761-2.067,0.145-2.864-1.198C141.808,88.975,147.861,85.965,148.516,85.674"/>
	<path fill="#1E171A" d="M26.143,89.737c1.197-0.835,1.887,0.254,2.03,0.761c0.146,0.508-0.326,1.959-0.725,2.902
		c-0.398,0.942-1.85,3.3-2.358,4.208c-0.507,0.905-1.705,0.941-2.284,0.65c-0.582-0.288-0.763-0.832-0.726-1.413
		C22.117,96.266,24.947,90.571,26.143,89.737"/>
	<path fill="#1E171A" d="M46.453,100.654c0.472-0.072,1.016,0.109,1.524,1.014c0.507,0.908,0.943,8.924,0.472,9.686
		s-1.15,1.305-1.996,1.305c-0.083-0.254-1.414-0.762-1.558-1.558c-0.146-0.799,0.326-8.489,0.543-9.433
		C45.657,100.727,45.982,100.727,46.453,100.654"/>
	<path fill="#1E171A" d="M28.719,107.4c1.414,0.217,8.523,2.248,8.667,3.444c0.146,1.199-0.399,1.669-1.85,1.523
		c-1.451-0.146-6.239-2.03-7.4-2.646c-1.16-0.618-1.269-0.907-0.979-1.705S27.305,107.182,28.719,107.4"/>
	<path fill="#1E171A" d="M37.823,121.727c1.559-0.617,3.3,0.471,2.791,1.776c-0.508,1.306-8.124,5.841-8.812,5.875
		c-0.689,0.038-1.198-0.217-1.596-1.052c-0.399-0.833-0.254-1.269,0.216-2.104C30.895,125.39,36.262,122.342,37.823,121.727"/>
	<path fill="#1E171A" d="M52.003,128.762c0.362-0.289,0.725-0.216,1.306,0.326c0.314,0.297-0.623,4.153-2.059,7.367
		c-1.203,2.693-2.906,4.836-3.055,5.003c-0.326,0.361-1.27,0.034-1.342-0.727c-0.073-0.762,0.798-1.16,1.306-2.067
		C48.667,137.758,51.641,129.053,52.003,128.762"/>
	<path fill="#1E171A" d="M61.687,135.182c1.27-0.688,1.851,0.183,2.177,0.508c0.328,0.326,0.328,8.123,0,8.704
		c-0.326,0.582-1.088,0.617-1.668,0.689s-1.378-0.47-1.487-1.233C60.599,143.089,60.417,135.871,61.687,135.182"/>
	<path fill="#1E171A" d="M84.282,135.943c0.579-0.508,2.574,1.415,3.554,1.741c0.979,0.327,1.741,0.979,1.524,1.306
		c-0.217,0.327-1.053,0.109-2.285,0c-1.233-0.108-2.176-0.579-3.044-1.015C83.156,137.539,83.704,136.451,84.282,135.943"/>
	<path fill="#1E171A" d="M41.014,144.649c0.725-0.073,2.575-0.764,2.901-0.58c0.326,0.179-0.435,1.051-1.088,1.414
		c-0.653,0.363-5.514,2.247-6.274,2.322c-0.762,0.071-2.575,0.434-3.446-0.22c-0.87-0.652-1.016-1.739,0.29-2.684
		C34.703,143.96,39.201,144.829,41.014,144.649"/>
</g>
</svg>
