<?xml version="1.0" encoding="utf-8"?>
<!-- Generator: Adobe Illustrator 15.0.0, SVG Export Plug-In . SVG Version: 6.00 Build 0)  -->
<!DOCTYPE svg PUBLIC "-//W3C//DTD SVG 1.1//EN" "http://www.w3.org/Graphics/SVG/1.1/DTD/svg11.dtd">
<svg version="1.1" id="Ebene_2" xmlns="http://www.w3.org/2000/svg" xmlns:xlink="http://www.w3.org/1999/xlink" x="0px" y="0px"
	 width="451px" height="107px" viewBox="0 0 451 107" enable-background="new 0 0 451 107" xml:space="preserve">
<g>
	<path fill-rule="evenodd" clip-rule="evenodd" fill="#1D1D1B" d="M96.281,0c0.227,0.149,0.457,0.293,0.845,0.282
		c0.909,3.894,1.49,7.905,2.251,11.823c1.491,7.671,3.294,15.156,4.787,23.367c1.519,8.361,1.602,16.25-2.533,21.959
		c-1.522,2.101-5.241,5.976-8.728,6.193c-4.495,0.28-9.034-1.898-11.262-4.785c-6.202-8.04,1.527-22.141,11.262-21.958
		c2.253,0.042,2.707,0.834,5.348,1.125c0.832-2.849,0.219-6.068,0-9.009c-0.453-6.108-0.991-12.229-1.688-18.58
		c-0.358-3.264-0.8-6.439-0.844-9.572C95.817,0.474,96.212,0.401,96.281,0 M93.184,57.431c3.174-1.096,6.543-7.241,5.63-10.98
		c-0.491-2.011-3.192-4.013-5.067-4.223c-6.222-0.698-9.252,5.827-8.728,12.105C86.706,57.31,89.908,58.563,93.184,57.431z"/>
	<path fill-rule="evenodd" clip-rule="evenodd" fill="#1D1D1B" d="M411.023,34.065c0.636-1.339-0.204-2.689-0.563-3.942
		c-1.187-4.144-2.052-7.76-3.378-11.824c-0.774-2.372-1.535-4.358-2.534-7.601c-0.602-1.956-2.464-6.228-1.97-8.164
		c0.181-0.711,1.691-2.319,3.099-2.252c3.312,0.156,4.545,7.911,5.628,11.26c1.243,3.842,2.981,7.683,4.224,12.387
		c0.559,2.119,0.842,4.808,1.407,7.319c0.884,3.919,1.926,7.165,1.408,11.825c-0.169,1.51-0.854,4.053-1.408,4.785
		c-2.047,2.697-10.15,3.276-13.794,1.126c-6.437-3.795-2.843-11.335,3.097-13.514C407.684,34.941,409.619,35.353,411.023,34.065
		 M404.268,43.074c0.67,4.822,11.278,2.52,8.163-4.223C409.423,37.044,403.737,39.26,404.268,43.074z"/>
	<path fill-rule="evenodd" clip-rule="evenodd" fill="#1D1D1B" d="M162.157,40.822c2.353,1.418,7.752,1.233,10.979,0.843
		c0.913-2.854,0.965-6.287,1.126-9.853c0.128-2.81,0.126-5.827,0-8.727c-0.151-3.438-1.505-7.101,0.281-9.572
		c2.294,1.199,1.726,4.729,1.97,7.6c0.231,2.683,0.659,5.725,0.846,8.728c0.266,4.295-0.54,9.074,0.281,12.386
		c0.298,1.208,1.931,2.634,1.97,3.66c0.062,1.593-1.792,2.667-1.97,3.661c0,4.123,0,8.095,0,12.951
		c0,3.891,1.068,9.886-2.815,10.135c-4.108,0.262-3.303-6.378-3.097-10.699c0.223-4.67,0.866-8.502,1.126-12.386
		c-2.016-1.831-7.06-0.635-10.135-1.408c-2.357,1.861-1.274,7.259-1.407,11.824c-0.062,2.112,0.581,10.259-1.689,10.699
		c-3.13,0.606-2.004-4.363-1.971-5.35c0.174-5.195,0.753-12.715,0-16.891c-2.263-1.89-7.05-0.892-7.319-4.222
		c-0.245-3.024,3.147-3.223,6.194-2.815c1.561-1.508,0.764-4.193,0.563-6.476c-0.459-5.223-0.826-12.541-0.844-18.299
		c-0.008-2.172-0.108-8.699,1.407-9.853c1.036-0.789,3.561-0.396,4.224,0.845c0.658,1.231,0.004,3.371,0,5.066
		c-0.006,2.542,0.843,5.509,1.125,9.009C163.562,28.594,162.121,36.154,162.157,40.822"/>
	<path fill-rule="evenodd" clip-rule="evenodd" fill="#1D1D1B" d="M320.654,14.358c-0.954,2.445-4.913,1.911-7.884,2.534
		c-5.24,1.097-10.831,3.125-16.889,3.941c-2.739,0.367-5.934,0.19-7.884,2.252c-0.149,3.824,0.388,9.359,0.845,13.512
		c2.694,0.79,5.819,0.759,5.911,3.378c0.092,2.584-2.815,2.965-5.63,3.661c-0.976,3.629-0.563,8.711-0.563,14.076
		c0,4.264,1.383,12.884-3.66,12.105c-3.508-0.543-2.4-5.714-2.251-9.01c0.078-1.722-0.078-3.595,0-5.35
		c0.204-4.633,1.485-9.223,0.28-11.822c-2.946-0.626-7.746,1.468-7.6-1.972c0.129-3.023,6.133-2.04,8.163-4.224
		c0.363-4.068,0.8-10.524-0.563-13.793c-3.272-1.602-15.456,3.39-16.046-0.846c-0.501-3.599,7.728-3.941,11.542-4.786
		c2.361-0.522,4.551-1.046,6.757-1.407c2.28-0.374,4.451-1.023,6.756-1.408c5.255-0.876,10.162-0.367,14.64-0.562
		c3.786-0.167,7.313-0.663,10.698-0.846C318.544,13.726,320.462,12.684,320.654,14.358"/>
	<path fill-rule="evenodd" clip-rule="evenodd" fill="#1D1D1B" d="M36.879,13.794c1.66,1.597,3.098,3.226,1.126,5.35
		c-0.766,0.824-9.305,3.563-11.261,3.097c-1.615-0.385-2.455-2.173-2.252-3.661c0.237-1.734,2.003-2.343,4.504-3.096
		C32.003,14.578,33.587,13.854,36.879,13.794"/>
	<g>
		<path fill-rule="evenodd" clip-rule="evenodd" fill="#1D1D1B" d="M6.756,36.88c3.114-0.512,5.552-2.973,8.165-4.504
			c1.29-0.757,2.689-1.554,3.941-2.253c1.111-0.618,2.707-1.904,3.941-1.126c-0.084,2.009-2.606,2.367-3.941,3.379
			c-4.066,3.086-7.649,8.017-10.697,12.387c0.657,1.316,2.288,1.967,3.66,2.814c1.22,0.756,2.376,1.601,3.66,2.535
			c3.167,2.303,6.906,3.597,9.291,6.475c1.158,1.396,3.207,4.874,3.096,6.475c-0.12,1.761-1.768,3.098-3.096,3.098
			c-2.676,0-2.968-3.134-4.223-5.067c-1.801-2.775-5.496-4.773-8.728-6.758c-2.061-1.264-3.99-2.624-5.912-3.377
			c-1.168,1.356-1.265,4.611-1.407,7.319c-0.194,3.683-0.364,7.88-0.282,12.105c0.035,1.807,0.745,4.023-1.126,4.785
			c-2.266-0.586-1.181-2.87-1.126-4.503c0.115-3.424-0.078-8.172-0.282-12.669C1.446,52.657,2.162,48.201,0,45.325
			c0.057-1.35,0.698-2.117,1.125-3.097c-0.253-3.882-0.128-9.025,0-13.512c0.083-2.906-0.77-9.414,3.379-7.039
			C7.112,23.171,5.729,33.639,6.756,36.88"/>
	</g>
	<path fill-rule="evenodd" clip-rule="evenodd" fill="#1D1D1B" d="M205.512,64.751c-0.119-2.804,1.953-6.112,0.281-7.884
		c-3.207,0.695-5.606,2.448-8.728,2.534c-11.446,0.318-14.263-14.234-7.319-21.676c1.226-1.314,4.101-3.287,5.913-3.66
		c3.556-0.735,5.782,1.09,8.445,0.844c0.367-2.979-2.491-4.44-4.504-4.786c-5.159-0.883-9.2,1.787-11.824,4.505
		c-0.948,0.982-2.1,2.859-3.378,2.814c-0.859-0.029-2.101-1.013-2.252-1.688c-0.394-1.763,1.78-3.578,2.815-4.786
		c2.29-2.671,5.441-6.124,9.853-6.757c8.089-1.163,12.866,3.888,14.921,9.008c3.014,7.512,3.101,19.892,1.407,29.28
		c-0.317,1.761-0.395,3.884-2.252,4.222C206.926,67.08,206.588,65.822,205.512,64.751 M194.25,39.977
		c-3.53,2.564-4.667,10.723-0.844,13.232c4.848,3.182,9.911-1.727,11.824-4.506c1.912-2.777,2.37-3.983,1.406-8.445
		C203.922,37.618,197.157,37.865,194.25,39.977z"/>
	<path fill-rule="evenodd" clip-rule="evenodd" fill="#1D1D1B" d="M432.138,39.977c-0.574,0.082-0.551,0.761-1.126,0.846
		c-0.639,3.376,1.92,5.35,4.505,6.754c2.244,1.221,5.139,2.976,7.601,3.379c2.917,0.478,5.474-0.965,7.884,0
		c-1.275,1.82-5.188,2.752-7.884,3.096c-9.39,1.197-16.946-3.241-17.736-11.542c-0.092-0.967,0.431-2.542,0-3.942
		c-0.69-2.249-5.193-2.47-4.784-5.349c1.832-1.535,2.934,0.981,5.065,0.846c1.635-0.641,1.162-2.254,2.253-3.381
		c2.051-2.113,8.48-3.301,13.514-2.813c3.193,0.31,7.697,2.062,7.882,4.505c0.279,3.689-7.001,7.436-10.979,7.882
		C436.021,40.516,434.17,40.042,432.138,39.977 M439.739,30.685c-3.014,0.6-6.768,2.132-7.319,4.787
		c3.914,2.363,11.599-1.381,11.542-4.503C442.944,29.995,441.008,30.435,439.739,30.685z"/>
	<path fill-rule="evenodd" clip-rule="evenodd" fill="#1D1D1B" d="M331.071,47.859c1.113,3.86,8.261,1.686,10.135,4.787
		c-1.876,2.698-6.142,0.819-8.728,0c-3.083-0.98-5.863-2.515-7.602-3.942c-1.942-0.029-4.236,0.296-5.066-0.844
		c-0.865-1.733,1.022-2.684,0.281-4.222c-2.499-0.204-2.263,1.008-3.941,0.843c-2.154-0.209-2.592-2.692-4.225-2.815
		c-2.282-0.174-5.165,4.125-5.911,6.193c-1.788,4.962,2.514,17.54-2.813,17.737c-4.046,0.148-3.72-6.933-3.942-11.825
		c-0.153-3.379,0.118-6.881,0-9.57c-0.16-3.65-0.9-8.854,1.971-9.009c3.042-0.164,2.281,3.325,3.378,5.631
		c2.212,0.142,3.054-2.25,4.786-3.097c3.161-1.547,6.445-0.512,9.571,0.563c1.165-5.54,8.11-10.758,15.485-9.854
		c2.575,0.316,6.605,1.954,7.037,4.785c0.573,3.762-3.224,9.343-5.631,11.261C334.292,45.728,331.984,45.986,331.071,47.859
		 M326.848,44.2c2.662,0.457,4.236-1.683,5.35-3.097c1.178-1.496,2.669-3.643,1.97-5.912
		C328.168,32.325,323.326,39.176,326.848,44.2z"/>
	<path fill-rule="evenodd" clip-rule="evenodd" fill="#1D1D1B" d="M266.039,34.628c-0.197,1.021-0.907,1.532-1.407,2.252
		c-2.357,0.245-4.306-1.974-7.038-2.252c-3.786-0.387-7.981,1.176-8.728,4.503c-2.091,9.333,12.4,12.34,10.698,21.395
		c-0.372,1.981-3.008,4.217-4.505,4.505c-4.266,0.824-13.639-3.196-9.009-6.474c2.726,0.123,5.022,2.925,7.883,1.125
		c-0.046-0.327,0.063-0.5,0.282-0.563c-0.161-5.081-4.244-5.172-7.039-8.445c-4.099-4.802-5.219-13.458,0.282-18.016
		C251.69,29.149,262.408,29.455,266.039,34.628"/>
	<path fill-rule="evenodd" clip-rule="evenodd" fill="#1D1D1B" d="M131.471,33.219c-0.312,9.167-6.325,12.63-14.92,13.515
		c-1.976,4.46-0.417,11.354,2.533,13.512c1.934,1.415,5.64,1.527,8.446,1.126c1.996-0.285,3.587-2.057,5.348-1.408
		c0.183,1.604-2.468,2.907-3.941,3.942c-2.867,2.013-6.276,3.774-10.417,1.97c-4.631-2.019-9.238-9.765-7.882-17.454
		c0.266-1.513,1.608-3.263,1.407-4.785c-0.35-2.66-5.153-3.789-3.378-6.757c2.751-2.308,3.249,1.509,5.631,1.407
		c1.593-0.07,2.554-2.612,3.941-3.942C121.323,31.391,127.402,28.434,131.471,33.219 M119.084,39.977
		c2.769,1.277,8.017-0.835,6.475-4.785C122.307,33.572,118.924,37.308,119.084,39.977z"/>
	<path fill-rule="evenodd" clip-rule="evenodd" fill="#1D1D1B" d="M222.122,31.531c-0.544,3.958-2.595,5.323-3.097,9.291
		c-0.754,5.961,1.748,13.631,6.476,14.356c4.091,0.628,6.768-2.661,7.882-5.067c0.59-1.278,1.353-4.064,1.688-6.193
		c0.753-4.767-0.5-10.795,3.66-10.979c3.813-0.169,3.068,4.511,2.534,8.446c-0.96,7.061-1.466,11.318-5.068,14.92
		c-4.091,4.09-12.019,6.2-17.172,1.408c-3.376-3.143-5.1-8.264-4.505-14.076c0.52-5.074,2.421-9.496,4.786-12.106
		C219.882,30.895,220.804,29.919,222.122,31.531"/>
	<path fill-rule="evenodd" clip-rule="evenodd" fill="#1D1D1B" d="M373.3,35.754c2.945,0.171,4.358-1.984,8.445-1.688
		c8.109,0.584,12.258,9.002,13.794,17.171c0.745,3.952,1.864,8.734-2.251,9.01c-4.586,0.307-3.522-5.427-4.224-9.853
		c-1.088-6.867-5.764-13.079-14.639-8.446c0.973,5.316,2.101,16.677-4.505,13.796c-0.862-2.815,0.235-6.02,0-10.418
		c-0.081-1.51-0.775-3.594-0.845-5.067c-0.059-1.252,0.327-2.841,0.282-4.223c-0.062-1.886-0.808-3.661,0.281-4.504
		c-0.012-0.483,0.209-0.729,0.563-0.847C373.322,30.29,371.803,34.527,373.3,35.754"/>
	<path fill-rule="evenodd" clip-rule="evenodd" fill="#1D1D1B" d="M345.146,31.813c4.041-0.62,1.818,6.737,2.253,10.978
		c0.14,1.367,0.814,3.588,1.126,4.223c0.822,1.683,2.731,4.628,7.039,3.942c3.632-0.581,4.985-6,4.785-11.262
		c-0.123-3.228-0.576-6.475,2.814-6.475c5.087,0,3.521,8.675,2.814,11.824c-1.192,5.339-4.692,11.861-11.26,12.105
		c-2.116,0.08-5.841-1.331-7.038-2.252c-3.953-3.042-5.097-9.788-4.785-16.609C343.034,35.222,342.184,32.266,345.146,31.813"/>
	<path fill-rule="evenodd" clip-rule="evenodd" fill="#1D1D1B" d="M43.917,52.363c2.416-1.673,1.204-4.675,2.252-6.756
		c1.048-2.078,6.084-5.824,8.446-7.038c3.417-1.758,9.625-2.837,13.231-0.843c3.585,1.98,5.796,7.608,6.475,13.793
		c0.576,5.248,0.887,11.414-2.534,11.823c-5.141,0.617-3.587-7.362-3.66-10.416c-0.085-3.608-0.317-8.684-2.814-9.573
		c-1.736-0.616-4.312-0.376-6.194,0c-3.341,0.671-8.253,4.033-9.854,6.195c-1.464,1.978-2.38,6.387-5.067,6.756
		c-2.201,0.301-5.479-2.68-5.912-5.068c-0.514-2.833,1.218-8.398,1.689-12.668c0.345-3.136-0.34-5.587,1.125-6.192
		c4.769-2.225,2.43,6.067,1.408,9.852C41.293,46.732,40.154,51.203,43.917,52.363"/>
	<path fill-rule="evenodd" clip-rule="evenodd" fill="#1D1D1B" d="M32.938,32.939c2.508,1.939,1.99,8.655,2.252,14.638
		c0.105,2.411-0.085,4.818,0,6.756c0.132,3.014,1.472,9.247-3.378,8.728c-3.35-0.356-2.815-5.45-2.815-12.104
		c0-6.134-1.226-17.133,1.971-18.017C31.531,32.782,32.389,33.053,32.938,32.939"/>
	<path fill-rule="evenodd" clip-rule="evenodd" fill="#1D1D1B" d="M140.761,40.258c2.973-0.679,5.1-5.603,9.854-3.377
		c1.987,3.601-2.59,3.493-4.223,4.223c-1.848,0.824-4.539,3.607-4.786,6.756c-0.166,2.12,1.126,6.274,1.689,8.727
		c0.886,3.856,3.573,10.51-1.126,10.698c-3.235,0.13-4.642-6.103-5.067-10.979c-0.355-4.076-0.101-9.239-0.563-13.231
		c-0.276-2.39-1.958-6.591,1.125-6.757C139.915,36.195,139.581,38.837,140.761,40.258"/>
	<path fill-rule="evenodd" clip-rule="evenodd" fill="#1D1D1B" d="M270.825,47.014c3.148-0.354,8.699-0.381,8.728,3.098
		c0.005,0.702-0.779,2.568-1.971,3.098c-1.274,0.565-4.521-0.235-7.602,0c-1.514,0.114-3.305,0.775-4.224,0.562
		c-1.75-0.406-2.538-2.488-2.532-3.097C263.253,47.239,267.43,47.396,270.825,47.014"/>
	<path fill-rule="evenodd" clip-rule="evenodd" fill="#1D1D1B" d="M119.084,93.467c3.005-1.117,6.834-0.264,10.416,0.281
		c2.307,0.35,5.139-0.041,6.195,1.688c-0.676,2.376-3.693,1.046-5.631,0.845c-2.981-0.309-6.606-0.58-9.009,0.281
		c-2.279,0.817-3.001,2.543-5.349,2.534c-1.666-2.084-1.161-5.713-1.407-8.729c-0.234-2.86,0.127-6.106,0-9.008
		c-0.126-2.862-0.915-6.015-0.563-7.601c-0.08-0.456,0.266-0.485,0.282-0.846c1.84-0.595,2.8,2.271,3.097,3.943
		C117.949,81.564,117.049,90.567,119.084,93.467"/>
	<path fill-rule="evenodd" clip-rule="evenodd" fill="#1D1D1B" d="M298.695,95.154c-1.657,0.025-1.833-2.05-2.252-3.097
		c-1.132-2.83-2.124-5.563-3.659-8.445c-1.358-2.549-3.846-5.681-3.379-9.571c2.096-1.17,2.269,1.798,2.815,2.816
		c0.721,1.339,1.634,2.683,2.252,3.938c1.4,2.848,2.195,6.063,3.378,8.729c1.398-0.602,0.889-2.402,1.127-3.66
		c0.239-1.268,0.581-2.698,0.845-3.941c0.692-3.257,1.693-6.594,3.379-8.445c4.068-0.08,2.023,3.736,0.844,6.757
		C302.424,84.381,300.407,91.856,298.695,95.154"/>
	<path fill-rule="evenodd" clip-rule="evenodd" fill="#1D1D1B" d="M144.422,92.902c-4.761-0.411-9.564-1.854-9.01-6.194
		c0.193-1.503,1.625-3.01,3.097-3.376c1.687-0.42,3.714,0.786,5.349-0.283c-0.121-2.078-3.349-2.354-5.631-2.253
		c-2.948,0.134-5.576,2.299-7.6,1.69c-1.006-6.094,12.655-6.763,16.328-2.815c0.773,0.833,1.977,3.461,2.252,5.631
		c0.234,1.835-0.368,3.654-0.563,5.349c-0.337,2.936,0.16,5.116-1.971,5.066C144.774,95.674,145.492,94.18,144.422,92.902
		 M138.791,87.835c0.942,1.937,5.776,1.858,6.756,0C145.58,85.26,138.367,84.188,138.791,87.835z"/>
	<path fill-rule="evenodd" clip-rule="evenodd" fill="#1D1D1B" d="M204.104,81.643c0.923-0.017,1.075-0.801,2.252-0.564
		c0.655,0.66,0.39,2.239,1.126,2.815c6.179-4.087,15.236-3.285,16.328,5.349c0.372,2.935,0.209,6.508-1.688,6.757
		c-3.675,0.483-1.298-4.008-2.252-7.882c-1.105-4.49-9.174-4.948-12.669-1.409c-0.023,3.701,2.255,9.126-0.844,10.981
		c-2.622-0.17-1.763-2.711-1.689-4.787c0.122-3.361,0.076-7.388-0.563-9.854c-1.331,0.267-1.608,1.584-2.252,2.534
		c-1.9,1.854-5.478,2.029-7.32,3.941c1.701,2.996,8.387-1.136,8.727,2.533c0.355,3.827-7.757,2.011-10.135,0
		c-1.189-1.006-2.072-3.045-3.096-4.223c0.875-2.228,1.198-5.069,3.096-7.039C196.134,77.678,202.238,76.487,204.104,81.643
		 M193.688,84.458c2.07,1.108,5.575-0.655,6.476-2.535C198.538,79.676,194.285,82.19,193.688,84.458z"/>
	<path fill-rule="evenodd" clip-rule="evenodd" fill="#1D1D1B" d="M442.836,82.205c-1.385,1.606-3.652,0.669-5.35,0.563
		c-5.461-0.346-12.099-0.697-18.299-0.282c-3.997,0.268-8.018,1.114-12.105,1.689c-20.174,2.839-43.251,1.368-63.342,2.252
		c-6.65,0.293-13.529,0.18-19.99-0.282c-1.699-0.122-3.908,0.173-5.348-1.126c0.729-1.763,2.905-1.099,3.941-1.126
		c1.619-0.041,3.234,0.28,4.785,0.282c5.674,0.01,11.667-1.407,17.735-1.689c15.295-0.712,31.297,0.189,46.453-0.844
		c2.968-0.202,5.936-0.047,8.728-0.282c3.104-0.262,6.229-0.979,9.29-1.407c3.435-0.482,7.358-1.297,10.416-1.408
		c6.015-0.22,12.391,1.036,18.581,1.689C439.7,80.378,442.604,80.01,442.836,82.205"/>
	<path fill-rule="evenodd" clip-rule="evenodd" fill="#1D1D1B" d="M153.711,82.486c5.172-1.968,9.836-3.007,13.231,1.407
		c1.126,1.465,4.004,11.483,0,11.543c-3.025,0.045-1.208-3.502-1.97-7.319c-0.918-4.601-7.371-5.204-10.979-1.972
		c0.25,3.151,0.909,7.176-2.252,7.603c-2.551-2.678,0.516-10.251-1.97-13.514c-0.205-0.767,0.56-0.566,0.563-1.126
		c0.188,0,0.375,0,0.563,0C152.788,79.28,152.233,81.9,153.711,82.486"/>
	<g>
		<path fill-rule="evenodd" clip-rule="evenodd" fill="#1D1D1B" d="M184.397,80.516c0.57,1.984,1.89,3.857,2.252,6.192
			c0.837,5.403-1.25,13.356-4.505,16.611c-1.646,1.646-5.074,2.798-8.164,3.098c-2.633,0.254-6.104,0.19-8.445-1.127
			c1.773-2.178,5.648-0.824,8.727-1.407c4.379-0.831,7.45-4.921,7.601-9.854c-1.202-1.122-2.905-0.359-4.223-0.562
			c-1.667-0.258-4.129-1.156-5.068-2.253c-2.027-2.368-1.451-6.704,0.281-9.009C175.333,78.91,180.601,78.378,184.397,80.516
			 M174.544,83.612c-1.297,5.521,3.435,7.377,7.601,5.63c1.37-1.443,1.979-5.371,0.845-7.6
			C180.046,80.303,175.713,81.411,174.544,83.612z"/>
	</g>
	<path fill-rule="evenodd" clip-rule="evenodd" fill="#1D1D1B" d="M238.869,99.025c-1.45-0.909-0.166-3.209-1.125-4.221
		c-3.313,0.2-7.111,1.821-9.854-0.564c-1.385-1.206-2.473-3.843-1.969-6.194c0.47-2.203,8.423-3.704,11.926-3.145
		c-0.9-1.521-8.478-2.101-12.208-1.921c-0.202-2.17,2.807-1.922,4.223-2.253c8.336-1.959,14.014,1.189,12.95,11.824
		C242.526,95.402,241.751,100.345,238.869,99.025 M229.298,90.018c0.568,3.569,9.818,2.223,8.164-2.533
		C234.645,85.965,228.709,86.32,229.298,90.018z"/>
	<path fill-rule="evenodd" clip-rule="evenodd" fill="#1D1D1B" d="M247.177,80.516c0.285,3.899-1.477,6.104,0,8.445
		c1.794,2.843,8.312,1.785,10.698-1.406c1.081-1.446,1.15-4.187,2.815-4.223c2.396-0.054,2.08,3.658,0.563,5.629
		c-2.719,3.534-12.203,6.815-16.048,2.253c-1.977-2.346-2.075-8.351,0.563-10.979C246.565,80.002,246.499,80.631,247.177,80.516"/>
	<path fill-rule="evenodd" clip-rule="evenodd" fill="#1D1D1B" d="M277.3,90.65c0.219,3.414,5.704,0.419,6.193,3.098
		c-3.356,2.233-8.813,0.005-9.853-2.816c-0.73-0.301-1.886-0.179-2.252-0.845c-0.721-0.996,1.034-1.463,1.407-2.252
		c-1.237-5.865,11.436-10.734,12.669-5.066C286.599,87.983,280.451,88.649,277.3,90.65 M277.019,86.708
		c1.438,1.034,4.981,0.139,5.35-1.688C281.397,82.73,276.817,84.334,277.019,86.708z"/>
	<path fill-rule="evenodd" clip-rule="evenodd" fill="#1D1D1B" d="M105.853,83.894c-0.318,2.54-3.541,1.604-5.068,1.689
		c-13.4,0.762-29.394,1.132-43.917,0.845c-12.329-0.243-25.1-0.499-37.443,0.28c-3.797,0.241-8.657,1.619-10.699-1.125
		c0.445-2.828,3.85-2.356,6.475-2.534c15.489-1.044,34.333-0.51,50.956,0.283c10.558,0.502,20.386,0.465,30.405,0
		c1.641-0.078,3.44-0.248,5.068-0.283C102.99,83.02,104.855,82.587,105.853,83.894"/>
	<path fill-rule="evenodd" clip-rule="evenodd" fill="#1D1D1B" d="M286.871,89.806c0.984,0.756,1.627,3.05,0.563,4.223
		c-2.339,0.183-3.19-1.125-3.097-3.378C285.021,90.209,285.54,89.602,286.871,89.806"/>
	<path fill-rule="evenodd" clip-rule="evenodd" fill="#1D1D1B" d="M304.607,90.65c1.402-0.088,2.212,0.039,2.534,1.127
		c0.175,0.59-0.456,3.027-1.689,3.377C302.814,95.903,299.48,90.973,304.607,90.65"/>
</g>
</svg>
